<svg width="224" height="224" viewBox="0 0 224 224" fill="none" xmlns="http://www.w3.org/2000/svg">
<rect width="224" height="224" rx="112" fill="#07004D"/>
<path d="M144.055 41.7818C168.993 56.5729 177.218 88.7798 162.427 113.718C153.535 128.711 138.348 137.663 122.231 139.205L86.7803 163.281C77.9764 169.26 66.1917 162.27 67.2164 151.678L71.0676 111.877C62.6203 96.1914 62.3676 76.5943 72.1178 60.1551C86.9089 35.2167 119.116 26.9907 144.055 41.7818ZM132.609 61.078C118.328 52.6084 99.8847 57.3196 91.4145 71.6002C82.9447 85.881 87.6554 104.324 101.936 112.794C116.217 121.264 134.66 116.554 143.13 102.273C151.6 87.9922 146.89 69.5481 132.609 61.078Z" fill="#DDD92A"/>
<path d="M98 41C106 36 134.5 37 138 41C141.5 45 122.138 88 122.138 88H113.862C113.862 88 90 46 98 41Z" fill="#07004D"/>
<circle cx="65" cy="183" r="14" fill="#DDD92A"/>
<circle cx="118" cy="96" r="6" fill="#EC4E20"/>
<path d="M103.5 45C106.5 42 129.5 41.5 132.5 45C135.5 48.5 121 84 121 84H115C115 84 100.5 48 103.5 45Z" fill="#EC4E20"/>
</svg>
